<?xml version="1.0" standalone="no"?>
<!DOCTYPE svg PUBLIC "-//W3C//DTD SVG 20010904//EN"
 "http://www.w3.org/TR/2001/REC-SVG-20010904/DTD/svg10.dtd">
<svg version="1.0" xmlns="http://www.w3.org/2000/svg"
 width="700.000000pt" height="700.000000pt" viewBox="0 0 700.000000 700.000000"
 preserveAspectRatio="xMidYMid meet">
<metadata>
Created by potrace 1.11, written by Peter Selinger 2001-2013
</metadata>
<g transform="translate(0.000000,700.000000) scale(0.100000,-0.100000)"
fill="#000000" stroke="none">
<path d="M3325 6923 c-701 -46 -1368 -305 -1920 -747 -131 -105 -411 -385
-512 -513 -410 -518 -651 -1093 -729 -1743 -37 -307 -20 -724 42 -1040 265
-1347 1327 -2409 2674 -2674 417 -82 893 -82 1310 0 542 106 1055 348 1498
705 111 90 395 377 488 494 859 1075 994 2531 346 3740 -421 787 -1169 1394
-2026 1644 -379 111 -796 159 -1171 134z m356 -2058 c207 -36 415 -164 516
-316 14 -22 27 -38 29 -36 2 2 13 66 24 143 11 76 22 145 25 152 3 9 53 12
201 12 l196 0 -6 -37 c-26 -164 -256 -2000 -256 -2047 0 -196 111 -255 283
-152 31 19 57 31 57 27 0 -4 -15 -52 -33 -106 l-33 -100 -76 -46 c-201 -122
-401 -121 -521 3 -56 57 -86 121 -94 196 -3 28 -9 52 -12 52 -4 0 -29 -25 -55
-55 -117 -136 -317 -259 -492 -302 -99 -24 -294 -21 -399 6 -173 45 -355 165
-464 306 -106 140 -191 353 -222 560 -16 114 -14 351 5 470 46 278 147 549
283 753 58 87 164 206 255 286 215 189 520 279 789 231z"/>
<path d="M3485 4644 c-189 -24 -314 -96 -425 -245 -112 -150 -170 -277 -220
-476 -41 -163 -59 -293 -67 -463 -19 -473 113 -822 357 -943 59 -29 74 -32
175 -35 120 -4 190 9 300 55 174 73 350 251 409 413 20 56 169 1194 162 1235
-9 44 -70 159 -121 225 -82 106 -222 194 -350 218 -70 13 -177 21 -220 16z"/>
</g>
</svg>
